<mxfile host="app.diagrams.net" agent="Mozilla/5.0 (Windows NT 10.0; Win64; x64) AppleWebKit/537.36 (KHTML, like Gecko) Chrome/131.0.0.0 Safari/537.36" version="25.0.3">
  <diagram name="Pagina-1" id="pAdMDBH-3m8gjzyCP_96">
    <mxGraphModel dx="2327" dy="796" grid="1" gridSize="10" guides="1" tooltips="1" connect="1" arrows="1" fold="1" page="1" pageScale="1" pageWidth="827" pageHeight="1169" math="0" shadow="0">
      <root>
        <mxCell id="0" />
        <mxCell id="1" parent="0" />
        <mxCell id="4dJ5GTAjc_wZiIMHPkDx-21" value="PlayerMovement" style="swimlane;fontStyle=0;childLayout=stackLayout;horizontal=1;startSize=26;fillColor=none;horizontalStack=0;resizeParent=1;resizeParentMax=0;resizeLast=0;collapsible=1;marginBottom=0;whiteSpace=wrap;html=1;" parent="1" vertex="1">
          <mxGeometry x="274" y="52" width="140" height="182" as="geometry" />
        </mxCell>
        <mxCell id="4dJ5GTAjc_wZiIMHPkDx-22" value="Running" style="text;strokeColor=none;fillColor=none;align=left;verticalAlign=top;spacingLeft=4;spacingRight=4;overflow=hidden;rotatable=0;points=[[0,0.5],[1,0.5]];portConstraint=eastwest;whiteSpace=wrap;html=1;" parent="4dJ5GTAjc_wZiIMHPkDx-21" vertex="1">
          <mxGeometry y="26" width="140" height="26" as="geometry" />
        </mxCell>
        <mxCell id="4dJ5GTAjc_wZiIMHPkDx-23" value="Jumping" style="text;strokeColor=none;fillColor=none;align=left;verticalAlign=top;spacingLeft=4;spacingRight=4;overflow=hidden;rotatable=0;points=[[0,0.5],[1,0.5]];portConstraint=eastwest;whiteSpace=wrap;html=1;" parent="4dJ5GTAjc_wZiIMHPkDx-21" vertex="1">
          <mxGeometry y="52" width="140" height="26" as="geometry" />
        </mxCell>
        <mxCell id="4dJ5GTAjc_wZiIMHPkDx-24" value="Wall Jumps" style="text;strokeColor=none;fillColor=none;align=left;verticalAlign=top;spacingLeft=4;spacingRight=4;overflow=hidden;rotatable=0;points=[[0,0.5],[1,0.5]];portConstraint=eastwest;whiteSpace=wrap;html=1;" parent="4dJ5GTAjc_wZiIMHPkDx-21" vertex="1">
          <mxGeometry y="78" width="140" height="26" as="geometry" />
        </mxCell>
        <mxCell id="4dJ5GTAjc_wZiIMHPkDx-25" value="Shotgun Recoil Launch" style="text;strokeColor=none;fillColor=none;align=left;verticalAlign=top;spacingLeft=4;spacingRight=4;overflow=hidden;rotatable=0;points=[[0,0.5],[1,0.5]];portConstraint=eastwest;whiteSpace=wrap;html=1;" parent="4dJ5GTAjc_wZiIMHPkDx-21" vertex="1">
          <mxGeometry y="104" width="140" height="26" as="geometry" />
        </mxCell>
        <mxCell id="4dJ5GTAjc_wZiIMHPkDx-26" value="Wall Climbing" style="text;strokeColor=none;fillColor=none;align=left;verticalAlign=top;spacingLeft=4;spacingRight=4;overflow=hidden;rotatable=0;points=[[0,0.5],[1,0.5]];portConstraint=eastwest;whiteSpace=wrap;html=1;" parent="4dJ5GTAjc_wZiIMHPkDx-21" vertex="1">
          <mxGeometry y="130" width="140" height="26" as="geometry" />
        </mxCell>
        <mxCell id="4dJ5GTAjc_wZiIMHPkDx-27" value="Sliding" style="text;strokeColor=none;fillColor=none;align=left;verticalAlign=top;spacingLeft=4;spacingRight=4;overflow=hidden;rotatable=0;points=[[0,0.5],[1,0.5]];portConstraint=eastwest;whiteSpace=wrap;html=1;" parent="4dJ5GTAjc_wZiIMHPkDx-21" vertex="1">
          <mxGeometry y="156" width="140" height="26" as="geometry" />
        </mxCell>
        <mxCell id="4dJ5GTAjc_wZiIMHPkDx-29" value="Shotgun" style="swimlane;fontStyle=0;childLayout=stackLayout;horizontal=1;startSize=26;fillColor=none;horizontalStack=0;resizeParent=1;resizeParentMax=0;resizeLast=0;collapsible=1;marginBottom=0;whiteSpace=wrap;html=1;" parent="1" vertex="1">
          <mxGeometry x="470" y="130" width="140" height="104" as="geometry" />
        </mxCell>
        <mxCell id="4dJ5GTAjc_wZiIMHPkDx-30" value="Shotgun Recoil" style="text;strokeColor=none;fillColor=none;align=left;verticalAlign=top;spacingLeft=4;spacingRight=4;overflow=hidden;rotatable=0;points=[[0,0.5],[1,0.5]];portConstraint=eastwest;whiteSpace=wrap;html=1;" parent="4dJ5GTAjc_wZiIMHPkDx-29" vertex="1">
          <mxGeometry y="26" width="140" height="26" as="geometry" />
        </mxCell>
        <mxCell id="4dJ5GTAjc_wZiIMHPkDx-31" value="Damage" style="text;strokeColor=none;fillColor=none;align=left;verticalAlign=top;spacingLeft=4;spacingRight=4;overflow=hidden;rotatable=0;points=[[0,0.5],[1,0.5]];portConstraint=eastwest;whiteSpace=wrap;html=1;" parent="4dJ5GTAjc_wZiIMHPkDx-29" vertex="1">
          <mxGeometry y="52" width="140" height="26" as="geometry" />
        </mxCell>
        <mxCell id="4dJ5GTAjc_wZiIMHPkDx-32" value="Reload" style="text;strokeColor=none;fillColor=none;align=left;verticalAlign=top;spacingLeft=4;spacingRight=4;overflow=hidden;rotatable=0;points=[[0,0.5],[1,0.5]];portConstraint=eastwest;whiteSpace=wrap;html=1;" parent="4dJ5GTAjc_wZiIMHPkDx-29" vertex="1">
          <mxGeometry y="78" width="140" height="26" as="geometry" />
        </mxCell>
        <mxCell id="4dJ5GTAjc_wZiIMHPkDx-33" value="" style="endArrow=classic;startArrow=classic;html=1;rounded=0;exitX=1;exitY=0.5;exitDx=0;exitDy=0;entryX=0;entryY=0.5;entryDx=0;entryDy=0;" parent="1" source="4dJ5GTAjc_wZiIMHPkDx-25" target="4dJ5GTAjc_wZiIMHPkDx-30" edge="1">
          <mxGeometry width="50" height="50" relative="1" as="geometry">
            <mxPoint x="370" y="190" as="sourcePoint" />
            <mxPoint x="420" y="140" as="targetPoint" />
            <Array as="points" />
          </mxGeometry>
        </mxCell>
        <mxCell id="4dJ5GTAjc_wZiIMHPkDx-35" value="Room Generation" style="swimlane;fontStyle=0;childLayout=stackLayout;horizontal=1;startSize=26;fillColor=none;horizontalStack=0;resizeParent=1;resizeParentMax=0;resizeLast=0;collapsible=1;marginBottom=0;whiteSpace=wrap;html=1;" parent="1" vertex="1">
          <mxGeometry x="30" y="156" width="140" height="78" as="geometry" />
        </mxCell>
        <mxCell id="4dJ5GTAjc_wZiIMHPkDx-38" value="Ground" style="text;strokeColor=none;fillColor=none;align=left;verticalAlign=top;spacingLeft=4;spacingRight=4;overflow=hidden;rotatable=0;points=[[0,0.5],[1,0.5]];portConstraint=eastwest;whiteSpace=wrap;html=1;" parent="4dJ5GTAjc_wZiIMHPkDx-35" vertex="1">
          <mxGeometry y="26" width="140" height="26" as="geometry" />
        </mxCell>
        <mxCell id="4dJ5GTAjc_wZiIMHPkDx-37" value="Wall" style="text;strokeColor=none;fillColor=none;align=left;verticalAlign=top;spacingLeft=4;spacingRight=4;overflow=hidden;rotatable=0;points=[[0,0.5],[1,0.5]];portConstraint=eastwest;whiteSpace=wrap;html=1;" parent="4dJ5GTAjc_wZiIMHPkDx-35" vertex="1">
          <mxGeometry y="52" width="140" height="26" as="geometry" />
        </mxCell>
        <mxCell id="4dJ5GTAjc_wZiIMHPkDx-39" value="" style="endArrow=classic;startArrow=classic;html=1;rounded=0;entryX=0;entryY=0.5;entryDx=0;entryDy=0;exitX=1;exitY=0.5;exitDx=0;exitDy=0;" parent="1" source="4dJ5GTAjc_wZiIMHPkDx-38" target="4dJ5GTAjc_wZiIMHPkDx-22" edge="1">
          <mxGeometry width="50" height="50" relative="1" as="geometry">
            <mxPoint x="190" y="150" as="sourcePoint" />
            <mxPoint x="240" y="100" as="targetPoint" />
          </mxGeometry>
        </mxCell>
        <mxCell id="4dJ5GTAjc_wZiIMHPkDx-40" value="" style="endArrow=classic;startArrow=classic;html=1;rounded=0;entryX=0;entryY=0.5;entryDx=0;entryDy=0;exitX=1;exitY=0.5;exitDx=0;exitDy=0;" parent="1" source="4dJ5GTAjc_wZiIMHPkDx-38" target="4dJ5GTAjc_wZiIMHPkDx-23" edge="1">
          <mxGeometry width="50" height="50" relative="1" as="geometry">
            <mxPoint x="224" y="170" as="sourcePoint" />
            <mxPoint x="274" y="120" as="targetPoint" />
          </mxGeometry>
        </mxCell>
        <mxCell id="4dJ5GTAjc_wZiIMHPkDx-45" value="" style="endArrow=classic;startArrow=classic;html=1;rounded=0;entryX=0;entryY=0.5;entryDx=0;entryDy=0;exitX=1;exitY=0.5;exitDx=0;exitDy=0;" parent="1" source="4dJ5GTAjc_wZiIMHPkDx-37" target="4dJ5GTAjc_wZiIMHPkDx-24" edge="1">
          <mxGeometry width="50" height="50" relative="1" as="geometry">
            <mxPoint x="150" y="250" as="sourcePoint" />
            <mxPoint x="200" y="200" as="targetPoint" />
          </mxGeometry>
        </mxCell>
        <mxCell id="4dJ5GTAjc_wZiIMHPkDx-46" value="" style="endArrow=classic;startArrow=classic;html=1;rounded=0;entryX=0;entryY=0.5;entryDx=0;entryDy=0;exitX=1;exitY=0.5;exitDx=0;exitDy=0;" parent="1" source="4dJ5GTAjc_wZiIMHPkDx-37" target="4dJ5GTAjc_wZiIMHPkDx-26" edge="1">
          <mxGeometry width="50" height="50" relative="1" as="geometry">
            <mxPoint x="180" y="250" as="sourcePoint" />
            <mxPoint x="230" y="200" as="targetPoint" />
          </mxGeometry>
        </mxCell>
        <mxCell id="4dJ5GTAjc_wZiIMHPkDx-47" value="" style="endArrow=classic;startArrow=classic;html=1;rounded=0;entryX=0;entryY=0.5;entryDx=0;entryDy=0;exitX=1;exitY=0.5;exitDx=0;exitDy=0;" parent="1" source="4dJ5GTAjc_wZiIMHPkDx-38" target="4dJ5GTAjc_wZiIMHPkDx-27" edge="1">
          <mxGeometry width="50" height="50" relative="1" as="geometry">
            <mxPoint x="180" y="260" as="sourcePoint" />
            <mxPoint x="230" y="210" as="targetPoint" />
          </mxGeometry>
        </mxCell>
        <mxCell id="atOxqDbi6hYZBl5ZxxyH-1" value="" style="ellipse;html=1;shape=startState;fillColor=#000000;strokeColor=#ff0000;" vertex="1" parent="1">
          <mxGeometry x="380" y="290" width="30" height="30" as="geometry" />
        </mxCell>
        <mxCell id="atOxqDbi6hYZBl5ZxxyH-2" value="" style="edgeStyle=orthogonalEdgeStyle;html=1;verticalAlign=bottom;endArrow=open;endSize=8;strokeColor=#ff0000;rounded=0;entryX=0.5;entryY=0;entryDx=0;entryDy=0;" edge="1" source="atOxqDbi6hYZBl5ZxxyH-1" parent="1" target="atOxqDbi6hYZBl5ZxxyH-3">
          <mxGeometry relative="1" as="geometry">
            <mxPoint x="395" y="380" as="targetPoint" />
          </mxGeometry>
        </mxCell>
        <mxCell id="atOxqDbi6hYZBl5ZxxyH-6" style="edgeStyle=orthogonalEdgeStyle;rounded=0;orthogonalLoop=1;jettySize=auto;html=1;entryX=0.5;entryY=0;entryDx=0;entryDy=0;" edge="1" parent="1" source="atOxqDbi6hYZBl5ZxxyH-3" target="atOxqDbi6hYZBl5ZxxyH-4">
          <mxGeometry relative="1" as="geometry" />
        </mxCell>
        <mxCell id="atOxqDbi6hYZBl5ZxxyH-3" value="Check for Input" style="rounded=1;whiteSpace=wrap;html=1;" vertex="1" parent="1">
          <mxGeometry x="335" y="370" width="120" height="60" as="geometry" />
        </mxCell>
        <mxCell id="atOxqDbi6hYZBl5ZxxyH-11" style="edgeStyle=orthogonalEdgeStyle;rounded=0;orthogonalLoop=1;jettySize=auto;html=1;entryX=0.5;entryY=0;entryDx=0;entryDy=0;" edge="1" parent="1" source="atOxqDbi6hYZBl5ZxxyH-4" target="atOxqDbi6hYZBl5ZxxyH-7">
          <mxGeometry relative="1" as="geometry" />
        </mxCell>
        <mxCell id="atOxqDbi6hYZBl5ZxxyH-12" value="A Pressed" style="edgeLabel;html=1;align=center;verticalAlign=middle;resizable=0;points=[];" vertex="1" connectable="0" parent="atOxqDbi6hYZBl5ZxxyH-11">
          <mxGeometry x="-0.6901" relative="1" as="geometry">
            <mxPoint x="-12" as="offset" />
          </mxGeometry>
        </mxCell>
        <mxCell id="atOxqDbi6hYZBl5ZxxyH-17" style="edgeStyle=orthogonalEdgeStyle;rounded=0;orthogonalLoop=1;jettySize=auto;html=1;exitX=0;exitY=1;exitDx=0;exitDy=0;entryX=0.5;entryY=0;entryDx=0;entryDy=0;" edge="1" parent="1" source="atOxqDbi6hYZBl5ZxxyH-4" target="atOxqDbi6hYZBl5ZxxyH-13">
          <mxGeometry relative="1" as="geometry">
            <Array as="points">
              <mxPoint x="94" y="495" />
            </Array>
          </mxGeometry>
        </mxCell>
        <mxCell id="atOxqDbi6hYZBl5ZxxyH-18" value="D Pressed" style="edgeLabel;html=1;align=center;verticalAlign=middle;resizable=0;points=[];" vertex="1" connectable="0" parent="atOxqDbi6hYZBl5ZxxyH-17">
          <mxGeometry x="0.0927" relative="1" as="geometry">
            <mxPoint as="offset" />
          </mxGeometry>
        </mxCell>
        <mxCell id="atOxqDbi6hYZBl5ZxxyH-19" style="edgeStyle=orthogonalEdgeStyle;rounded=0;orthogonalLoop=1;jettySize=auto;html=1;entryX=0.5;entryY=0;entryDx=0;entryDy=0;" edge="1" parent="1">
          <mxGeometry relative="1" as="geometry">
            <mxPoint x="201" y="520" as="sourcePoint" />
            <mxPoint x="201" y="710" as="targetPoint" />
          </mxGeometry>
        </mxCell>
        <mxCell id="atOxqDbi6hYZBl5ZxxyH-20" value="Spacebar or&amp;nbsp; W Pressed" style="edgeLabel;html=1;align=center;verticalAlign=middle;resizable=0;points=[];" vertex="1" connectable="0" parent="atOxqDbi6hYZBl5ZxxyH-19">
          <mxGeometry x="-0.4941" y="5" relative="1" as="geometry">
            <mxPoint as="offset" />
          </mxGeometry>
        </mxCell>
        <mxCell id="atOxqDbi6hYZBl5ZxxyH-22" style="edgeStyle=orthogonalEdgeStyle;rounded=0;orthogonalLoop=1;jettySize=auto;html=1;exitX=1;exitY=1;exitDx=0;exitDy=0;entryX=0.5;entryY=0;entryDx=0;entryDy=0;" edge="1" parent="1" source="atOxqDbi6hYZBl5ZxxyH-4" target="atOxqDbi6hYZBl5ZxxyH-25">
          <mxGeometry relative="1" as="geometry">
            <mxPoint x="300" y="630" as="targetPoint" />
            <Array as="points">
              <mxPoint x="300" y="495" />
              <mxPoint x="300" y="650" />
              <mxPoint x="314" y="650" />
            </Array>
          </mxGeometry>
        </mxCell>
        <mxCell id="atOxqDbi6hYZBl5ZxxyH-23" value="Text" style="edgeLabel;html=1;align=center;verticalAlign=middle;resizable=0;points=[];" vertex="1" connectable="0" parent="atOxqDbi6hYZBl5ZxxyH-22">
          <mxGeometry x="0.2644" y="-4" relative="1" as="geometry">
            <mxPoint as="offset" />
          </mxGeometry>
        </mxCell>
        <mxCell id="atOxqDbi6hYZBl5ZxxyH-24" value="S Pressed" style="edgeLabel;html=1;align=center;verticalAlign=middle;resizable=0;points=[];" vertex="1" connectable="0" parent="atOxqDbi6hYZBl5ZxxyH-22">
          <mxGeometry x="0.2532" y="-2" relative="1" as="geometry">
            <mxPoint as="offset" />
          </mxGeometry>
        </mxCell>
        <mxCell id="atOxqDbi6hYZBl5ZxxyH-37" style="edgeStyle=orthogonalEdgeStyle;rounded=0;orthogonalLoop=1;jettySize=auto;html=1;entryX=0.5;entryY=0;entryDx=0;entryDy=0;" edge="1" parent="1" source="atOxqDbi6hYZBl5ZxxyH-4" target="atOxqDbi6hYZBl5ZxxyH-36">
          <mxGeometry relative="1" as="geometry" />
        </mxCell>
        <mxCell id="atOxqDbi6hYZBl5ZxxyH-38" value="Left Click Pressed" style="edgeLabel;html=1;align=center;verticalAlign=middle;resizable=0;points=[];" vertex="1" connectable="0" parent="atOxqDbi6hYZBl5ZxxyH-37">
          <mxGeometry x="0.4474" y="3" relative="1" as="geometry">
            <mxPoint as="offset" />
          </mxGeometry>
        </mxCell>
        <mxCell id="atOxqDbi6hYZBl5ZxxyH-43" style="edgeStyle=orthogonalEdgeStyle;rounded=0;orthogonalLoop=1;jettySize=auto;html=1;exitX=1;exitY=0;exitDx=0;exitDy=0;entryX=0;entryY=0;entryDx=0;entryDy=0;" edge="1" parent="1" source="atOxqDbi6hYZBl5ZxxyH-4" target="atOxqDbi6hYZBl5ZxxyH-42">
          <mxGeometry relative="1" as="geometry">
            <Array as="points">
              <mxPoint x="550" y="445" />
              <mxPoint x="550" y="540" />
            </Array>
          </mxGeometry>
        </mxCell>
        <mxCell id="atOxqDbi6hYZBl5ZxxyH-44" value="Spacebar and A or D Pressed" style="edgeLabel;html=1;align=center;verticalAlign=middle;resizable=0;points=[];" vertex="1" connectable="0" parent="atOxqDbi6hYZBl5ZxxyH-43">
          <mxGeometry x="0.2132" y="-4" relative="1" as="geometry">
            <mxPoint as="offset" />
          </mxGeometry>
        </mxCell>
        <mxCell id="atOxqDbi6hYZBl5ZxxyH-55" style="edgeStyle=orthogonalEdgeStyle;rounded=0;orthogonalLoop=1;jettySize=auto;html=1;exitX=0;exitY=0;exitDx=0;exitDy=0;entryX=0.5;entryY=0;entryDx=0;entryDy=0;" edge="1" parent="1" source="atOxqDbi6hYZBl5ZxxyH-4" target="atOxqDbi6hYZBl5ZxxyH-54">
          <mxGeometry relative="1" as="geometry" />
        </mxCell>
        <mxCell id="atOxqDbi6hYZBl5ZxxyH-56" value="W or S pressed" style="edgeLabel;html=1;align=center;verticalAlign=middle;resizable=0;points=[];" vertex="1" connectable="0" parent="atOxqDbi6hYZBl5ZxxyH-55">
          <mxGeometry x="0.1711" y="1" relative="1" as="geometry">
            <mxPoint as="offset" />
          </mxGeometry>
        </mxCell>
        <mxCell id="atOxqDbi6hYZBl5ZxxyH-4" value="Checks for button pressed" style="rhombus;whiteSpace=wrap;html=1;" vertex="1" parent="1">
          <mxGeometry x="150" y="420" width="100" height="100" as="geometry" />
        </mxCell>
        <mxCell id="atOxqDbi6hYZBl5ZxxyH-65" style="edgeStyle=orthogonalEdgeStyle;rounded=0;orthogonalLoop=1;jettySize=auto;html=1;entryX=0.5;entryY=0;entryDx=0;entryDy=0;" edge="1" parent="1" source="atOxqDbi6hYZBl5ZxxyH-7" target="atOxqDbi6hYZBl5ZxxyH-64">
          <mxGeometry relative="1" as="geometry" />
        </mxCell>
        <mxCell id="atOxqDbi6hYZBl5ZxxyH-7" value="Move Player Left" style="rounded=1;whiteSpace=wrap;html=1;" vertex="1" parent="1">
          <mxGeometry x="-40" y="570" width="120" height="60" as="geometry" />
        </mxCell>
        <mxCell id="atOxqDbi6hYZBl5ZxxyH-71" style="edgeStyle=orthogonalEdgeStyle;rounded=0;orthogonalLoop=1;jettySize=auto;html=1;entryX=0.5;entryY=0;entryDx=0;entryDy=0;" edge="1" parent="1" source="atOxqDbi6hYZBl5ZxxyH-13" target="atOxqDbi6hYZBl5ZxxyH-66">
          <mxGeometry relative="1" as="geometry" />
        </mxCell>
        <mxCell id="atOxqDbi6hYZBl5ZxxyH-13" value="Move Player Right" style="rounded=1;whiteSpace=wrap;html=1;" vertex="1" parent="1">
          <mxGeometry x="34" y="640" width="120" height="60" as="geometry" />
        </mxCell>
        <mxCell id="atOxqDbi6hYZBl5ZxxyH-72" style="edgeStyle=orthogonalEdgeStyle;rounded=0;orthogonalLoop=1;jettySize=auto;html=1;entryX=0.5;entryY=0;entryDx=0;entryDy=0;" edge="1" parent="1" source="atOxqDbi6hYZBl5ZxxyH-16" target="atOxqDbi6hYZBl5ZxxyH-70">
          <mxGeometry relative="1" as="geometry" />
        </mxCell>
        <mxCell id="atOxqDbi6hYZBl5ZxxyH-16" value="Move Player Up (Jump)" style="rounded=1;whiteSpace=wrap;html=1;" vertex="1" parent="1">
          <mxGeometry x="140" y="710" width="120" height="60" as="geometry" />
        </mxCell>
        <mxCell id="atOxqDbi6hYZBl5ZxxyH-28" style="edgeStyle=orthogonalEdgeStyle;rounded=0;orthogonalLoop=1;jettySize=auto;html=1;entryX=0.5;entryY=0;entryDx=0;entryDy=0;" edge="1" parent="1" source="atOxqDbi6hYZBl5ZxxyH-25" target="atOxqDbi6hYZBl5ZxxyH-26">
          <mxGeometry relative="1" as="geometry" />
        </mxCell>
        <mxCell id="atOxqDbi6hYZBl5ZxxyH-30" value="True" style="edgeLabel;html=1;align=center;verticalAlign=middle;resizable=0;points=[];" vertex="1" connectable="0" parent="atOxqDbi6hYZBl5ZxxyH-28">
          <mxGeometry x="-0.5681" y="2" relative="1" as="geometry">
            <mxPoint as="offset" />
          </mxGeometry>
        </mxCell>
        <mxCell id="atOxqDbi6hYZBl5ZxxyH-33" style="edgeStyle=orthogonalEdgeStyle;rounded=0;orthogonalLoop=1;jettySize=auto;html=1;exitX=1;exitY=0;exitDx=0;exitDy=0;entryX=0.25;entryY=1;entryDx=0;entryDy=0;" edge="1" parent="1" source="atOxqDbi6hYZBl5ZxxyH-25" target="atOxqDbi6hYZBl5ZxxyH-3">
          <mxGeometry relative="1" as="geometry" />
        </mxCell>
        <mxCell id="atOxqDbi6hYZBl5ZxxyH-34" value="False" style="edgeLabel;html=1;align=center;verticalAlign=middle;resizable=0;points=[];" vertex="1" connectable="0" parent="atOxqDbi6hYZBl5ZxxyH-33">
          <mxGeometry x="-0.689" y="-2" relative="1" as="geometry">
            <mxPoint as="offset" />
          </mxGeometry>
        </mxCell>
        <mxCell id="atOxqDbi6hYZBl5ZxxyH-25" value="is player moving" style="rhombus;whiteSpace=wrap;html=1;" vertex="1" parent="1">
          <mxGeometry x="274" y="660" width="80" height="80" as="geometry" />
        </mxCell>
        <mxCell id="atOxqDbi6hYZBl5ZxxyH-73" style="edgeStyle=orthogonalEdgeStyle;rounded=0;orthogonalLoop=1;jettySize=auto;html=1;entryX=0.5;entryY=0;entryDx=0;entryDy=0;" edge="1" parent="1" source="atOxqDbi6hYZBl5ZxxyH-26" target="atOxqDbi6hYZBl5ZxxyH-67">
          <mxGeometry relative="1" as="geometry" />
        </mxCell>
        <mxCell id="atOxqDbi6hYZBl5ZxxyH-26" value="Move Player Down and Moving Direction" style="rounded=1;whiteSpace=wrap;html=1;" vertex="1" parent="1">
          <mxGeometry x="234" y="790" width="120" height="60" as="geometry" />
        </mxCell>
        <mxCell id="atOxqDbi6hYZBl5ZxxyH-40" style="edgeStyle=orthogonalEdgeStyle;rounded=0;orthogonalLoop=1;jettySize=auto;html=1;entryX=0.5;entryY=0;entryDx=0;entryDy=0;" edge="1" parent="1" source="atOxqDbi6hYZBl5ZxxyH-36" target="atOxqDbi6hYZBl5ZxxyH-39">
          <mxGeometry relative="1" as="geometry" />
        </mxCell>
        <mxCell id="atOxqDbi6hYZBl5ZxxyH-41" value="True" style="edgeLabel;html=1;align=center;verticalAlign=middle;resizable=0;points=[];" vertex="1" connectable="0" parent="atOxqDbi6hYZBl5ZxxyH-40">
          <mxGeometry x="-0.4672" y="4" relative="1" as="geometry">
            <mxPoint as="offset" />
          </mxGeometry>
        </mxCell>
        <mxCell id="atOxqDbi6hYZBl5ZxxyH-36" value="is using Recoil Mode" style="rhombus;whiteSpace=wrap;html=1;" vertex="1" parent="1">
          <mxGeometry x="400" y="600" width="80" height="80" as="geometry" />
        </mxCell>
        <mxCell id="atOxqDbi6hYZBl5ZxxyH-74" style="edgeStyle=orthogonalEdgeStyle;rounded=0;orthogonalLoop=1;jettySize=auto;html=1;entryX=0.5;entryY=0;entryDx=0;entryDy=0;" edge="1" parent="1" source="atOxqDbi6hYZBl5ZxxyH-39" target="atOxqDbi6hYZBl5ZxxyH-68">
          <mxGeometry relative="1" as="geometry" />
        </mxCell>
        <mxCell id="atOxqDbi6hYZBl5ZxxyH-39" value="Launch Player Opposite Direction" style="rounded=1;whiteSpace=wrap;html=1;" vertex="1" parent="1">
          <mxGeometry x="360" y="730" width="120" height="60" as="geometry" />
        </mxCell>
        <mxCell id="atOxqDbi6hYZBl5ZxxyH-46" style="edgeStyle=orthogonalEdgeStyle;rounded=0;orthogonalLoop=1;jettySize=auto;html=1;entryX=1;entryY=0.5;entryDx=0;entryDy=0;" edge="1" parent="1" source="atOxqDbi6hYZBl5ZxxyH-42" target="atOxqDbi6hYZBl5ZxxyH-3">
          <mxGeometry relative="1" as="geometry">
            <Array as="points">
              <mxPoint x="600" y="400" />
            </Array>
          </mxGeometry>
        </mxCell>
        <mxCell id="atOxqDbi6hYZBl5ZxxyH-49" value="False" style="edgeLabel;html=1;align=center;verticalAlign=middle;resizable=0;points=[];" vertex="1" connectable="0" parent="atOxqDbi6hYZBl5ZxxyH-46">
          <mxGeometry x="-0.679" relative="1" as="geometry">
            <mxPoint as="offset" />
          </mxGeometry>
        </mxCell>
        <mxCell id="atOxqDbi6hYZBl5ZxxyH-48" style="edgeStyle=orthogonalEdgeStyle;rounded=0;orthogonalLoop=1;jettySize=auto;html=1;entryX=0.5;entryY=0;entryDx=0;entryDy=0;" edge="1" parent="1" source="atOxqDbi6hYZBl5ZxxyH-42" target="atOxqDbi6hYZBl5ZxxyH-47">
          <mxGeometry relative="1" as="geometry" />
        </mxCell>
        <mxCell id="atOxqDbi6hYZBl5ZxxyH-50" value="True" style="edgeLabel;html=1;align=center;verticalAlign=middle;resizable=0;points=[];" vertex="1" connectable="0" parent="atOxqDbi6hYZBl5ZxxyH-48">
          <mxGeometry x="-0.4961" y="3" relative="1" as="geometry">
            <mxPoint as="offset" />
          </mxGeometry>
        </mxCell>
        <mxCell id="atOxqDbi6hYZBl5ZxxyH-42" value="check if player collides with wall" style="rhombus;whiteSpace=wrap;html=1;" vertex="1" parent="1">
          <mxGeometry x="560" y="520" width="80" height="80" as="geometry" />
        </mxCell>
        <mxCell id="atOxqDbi6hYZBl5ZxxyH-75" style="edgeStyle=orthogonalEdgeStyle;rounded=0;orthogonalLoop=1;jettySize=auto;html=1;entryX=0.5;entryY=0;entryDx=0;entryDy=0;" edge="1" parent="1" source="atOxqDbi6hYZBl5ZxxyH-47" target="atOxqDbi6hYZBl5ZxxyH-69">
          <mxGeometry relative="1" as="geometry" />
        </mxCell>
        <mxCell id="atOxqDbi6hYZBl5ZxxyH-47" value="Jump off wall to the opposite Direction of the Wall" style="rounded=1;whiteSpace=wrap;html=1;" vertex="1" parent="1">
          <mxGeometry x="530" y="660" width="120" height="60" as="geometry" />
        </mxCell>
        <mxCell id="atOxqDbi6hYZBl5ZxxyH-58" style="edgeStyle=orthogonalEdgeStyle;rounded=0;orthogonalLoop=1;jettySize=auto;html=1;entryX=0.5;entryY=0;entryDx=0;entryDy=0;" edge="1" parent="1" source="atOxqDbi6hYZBl5ZxxyH-54" target="atOxqDbi6hYZBl5ZxxyH-57">
          <mxGeometry relative="1" as="geometry" />
        </mxCell>
        <mxCell id="atOxqDbi6hYZBl5ZxxyH-59" value="True" style="edgeLabel;html=1;align=center;verticalAlign=middle;resizable=0;points=[];" vertex="1" connectable="0" parent="atOxqDbi6hYZBl5ZxxyH-58">
          <mxGeometry x="-0.0608" y="1" relative="1" as="geometry">
            <mxPoint as="offset" />
          </mxGeometry>
        </mxCell>
        <mxCell id="atOxqDbi6hYZBl5ZxxyH-60" style="edgeStyle=orthogonalEdgeStyle;rounded=0;orthogonalLoop=1;jettySize=auto;html=1;entryX=0;entryY=0;entryDx=0;entryDy=0;" edge="1" parent="1" source="atOxqDbi6hYZBl5ZxxyH-54" target="atOxqDbi6hYZBl5ZxxyH-3">
          <mxGeometry relative="1" as="geometry">
            <Array as="points">
              <mxPoint x="50" y="510" />
              <mxPoint x="50" y="350" />
              <mxPoint x="335" y="350" />
            </Array>
          </mxGeometry>
        </mxCell>
        <mxCell id="atOxqDbi6hYZBl5ZxxyH-61" value="False" style="edgeLabel;html=1;align=center;verticalAlign=middle;resizable=0;points=[];" vertex="1" connectable="0" parent="atOxqDbi6hYZBl5ZxxyH-60">
          <mxGeometry x="-0.8373" y="1" relative="1" as="geometry">
            <mxPoint as="offset" />
          </mxGeometry>
        </mxCell>
        <mxCell id="atOxqDbi6hYZBl5ZxxyH-54" value="check if player collides with wall" style="rhombus;whiteSpace=wrap;html=1;" vertex="1" parent="1">
          <mxGeometry x="-170" y="470" width="80" height="80" as="geometry" />
        </mxCell>
        <mxCell id="atOxqDbi6hYZBl5ZxxyH-63" style="edgeStyle=orthogonalEdgeStyle;rounded=0;orthogonalLoop=1;jettySize=auto;html=1;entryX=0.5;entryY=0;entryDx=0;entryDy=0;" edge="1" parent="1" source="atOxqDbi6hYZBl5ZxxyH-57" target="atOxqDbi6hYZBl5ZxxyH-62">
          <mxGeometry relative="1" as="geometry" />
        </mxCell>
        <mxCell id="atOxqDbi6hYZBl5ZxxyH-57" value="Walk up or down base on the input" style="rounded=1;whiteSpace=wrap;html=1;" vertex="1" parent="1">
          <mxGeometry x="-190" y="610" width="120" height="60" as="geometry" />
        </mxCell>
        <mxCell id="atOxqDbi6hYZBl5ZxxyH-62" value="" style="ellipse;html=1;shape=endState;fillColor=#000000;strokeColor=#ff0000;" vertex="1" parent="1">
          <mxGeometry x="-160" y="730" width="30" height="30" as="geometry" />
        </mxCell>
        <mxCell id="atOxqDbi6hYZBl5ZxxyH-64" value="" style="ellipse;html=1;shape=endState;fillColor=#000000;strokeColor=#ff0000;" vertex="1" parent="1">
          <mxGeometry x="-30" y="730" width="30" height="30" as="geometry" />
        </mxCell>
        <mxCell id="atOxqDbi6hYZBl5ZxxyH-66" value="" style="ellipse;html=1;shape=endState;fillColor=#000000;strokeColor=#ff0000;" vertex="1" parent="1">
          <mxGeometry x="70" y="730" width="30" height="30" as="geometry" />
        </mxCell>
        <mxCell id="atOxqDbi6hYZBl5ZxxyH-67" value="" style="ellipse;html=1;shape=endState;fillColor=#000000;strokeColor=#ff0000;" vertex="1" parent="1">
          <mxGeometry x="279" y="880" width="30" height="30" as="geometry" />
        </mxCell>
        <mxCell id="atOxqDbi6hYZBl5ZxxyH-68" value="" style="ellipse;html=1;shape=endState;fillColor=#000000;strokeColor=#ff0000;" vertex="1" parent="1">
          <mxGeometry x="414" y="830" width="30" height="30" as="geometry" />
        </mxCell>
        <mxCell id="atOxqDbi6hYZBl5ZxxyH-69" value="" style="ellipse;html=1;shape=endState;fillColor=#000000;strokeColor=#ff0000;" vertex="1" parent="1">
          <mxGeometry x="585" y="760" width="30" height="30" as="geometry" />
        </mxCell>
        <mxCell id="atOxqDbi6hYZBl5ZxxyH-70" value="" style="ellipse;html=1;shape=endState;fillColor=#000000;strokeColor=#ff0000;" vertex="1" parent="1">
          <mxGeometry x="154" y="805" width="30" height="30" as="geometry" />
        </mxCell>
      </root>
    </mxGraphModel>
  </diagram>
</mxfile>
